# xmcd
#
# Track frame offsets:
#	150
#	20823
#	47306
#	70975
#	87646
#	106751
#	127009
#	148123
#	169640
#
# Disc length: 2516 seconds
#
# Revision: 3
# Processed by: cddbd v1.5.2PL0 Copyright (c) Steve Scherf et al.
# Submitted via: EZCDAudioConverter 8.0.2.1
#
DISCID=7b09d209
DTITLE=Song Giang - Vol 02. Nửa Vầng Trăng
DYEAR=2006
DGENRE=Contemporary Pop
TTITLE0=Nửa Vầng Trăng
TTITLE1=Hạnh phúc bay xa
TTITLE2=Trái tim bình yên
TTITLE3=Dành cho anh
TTITLE4=Tình yêu đầu tiên
TTITLE5=Đừng làm em đau đớn
TTITLE6=Chỉ còn trong mơ
TTITLE7=Còn lại xót xa
TTITLE8=Đắng cay
EXTD=
EXTT0=
EXTT1=
EXTT2=
EXTT3=
EXTT4=
EXTT5=
EXTT6=
EXTT7=
EXTT8=
PLAYORDER=
